<svg width="494" height="44" viewBox="0 0 494 44" fill="none" xmlns="http://www.w3.org/2000/svg">
<path d="M20.7971 31.6579C20.7971 34.3079 19.0481 35.6859 16.0271 35.6859H9.34913V27.4709H15.9211C18.9421 27.4709 20.7971 29.0079 20.7971 31.6579ZM19.8961 16.9769C19.8961 19.5209 18.2531 20.8459 15.2851 20.8459H9.34913V13.0549H15.2851C18.2531 13.0549 19.8961 14.4329 19.8961 16.9769ZM29.9661 32.8769C29.9661 28.6369 27.1571 24.8209 22.8111 23.9199C26.4151 22.8599 29.1181 19.9449 29.1181 15.4399C29.1181 9.55695 24.6131 5.79395 17.0341 5.79395H0.286133V42.9999H17.6171C25.4611 42.9999 29.9661 39.0249 29.9661 32.8769Z" fill="#FF0000"/>
<path d="M64.1604 28.2129C64.1604 18.8319 57.4824 13.0019 48.7904 13.0019C40.1514 13.0019 33.4204 18.8319 33.4204 28.2129C33.4204 37.5939 39.9924 43.4239 48.6844 43.4239C57.3764 43.4239 64.1604 37.5939 64.1604 28.2129ZM42.6424 28.2129C42.6424 23.1779 45.5044 20.8459 48.7904 20.8459C51.9704 20.8459 54.9384 23.1779 54.9384 28.2129C54.9384 33.1949 51.9174 35.5799 48.6844 35.5799C45.3984 35.5799 42.6424 33.1949 42.6424 28.2129ZM67.1665 28.1599C67.1665 37.4879 72.9435 43.4239 80.1515 43.4239C84.5505 43.4239 87.6775 41.4099 89.3205 38.8129V42.9999H98.3835V13.4259H89.3205V17.6129C87.7305 15.0159 84.6035 13.0019 80.2045 13.0019C72.9435 13.0019 67.1665 18.8319 67.1665 28.1599ZM89.3205 28.2129C89.3205 32.9299 86.2995 35.5269 82.8545 35.5269C79.4625 35.5269 76.3885 32.8769 76.3885 28.1599C76.3885 23.4429 79.4625 20.8989 82.8545 20.8989C86.2995 20.8989 89.3205 23.4959 89.3205 28.2129ZM114.003 29.2729C114.003 24.1849 116.494 22.7009 120.787 22.7009H123.278V13.1079C119.303 13.1079 116.07 15.2279 114.003 18.3549V13.4259H104.94V42.9999H114.003V29.2729ZM125.808 28.1599C125.808 37.4879 131.585 43.4239 138.846 43.4239C143.192 43.4239 146.319 41.4629 147.962 38.7599V42.9999H157.025V3.77988H147.962V17.5069C146.16 14.8039 142.768 13.0019 138.846 13.0019C131.585 13.0019 125.808 18.8319 125.808 28.1599ZM147.962 28.2129C147.962 32.9299 144.941 35.5269 141.496 35.5269C138.104 35.5269 135.03 32.8769 135.03 28.1599C135.03 23.4429 138.104 20.8989 141.496 20.8989C144.941 20.8989 147.962 23.4959 147.962 28.2129ZM202.151 28.1599C202.151 37.4879 207.928 43.4239 215.136 43.4239C219.535 43.4239 222.662 41.4099 224.305 38.8129V42.9999H233.368V13.4259H224.305V17.6129C222.715 15.0159 219.588 13.0019 215.189 13.0019C207.928 13.0019 202.151 18.8319 202.151 28.1599ZM224.305 28.2129C224.305 32.9299 221.284 35.5269 217.839 35.5269C214.447 35.5269 211.373 32.8769 211.373 28.1599C211.373 23.4429 214.447 20.8989 217.839 20.8989C221.284 20.8989 224.305 23.4959 224.305 28.2129ZM280.682 42.9999H289.692V25.7219C289.692 17.7719 284.975 13.1079 277.661 13.1079C273.368 13.1079 269.658 15.4929 267.697 18.6199C265.683 15.0689 262.079 13.1079 257.627 13.1079C253.758 13.1079 250.737 14.7509 248.988 17.1359V13.4259H239.925V42.9999H248.988V26.9409C248.988 23.0719 251.214 20.9519 254.659 20.9519C258.104 20.9519 260.33 23.0719 260.33 26.9409V42.9999H269.34V26.9409C269.34 23.0719 271.566 20.9519 275.011 20.9519C278.456 20.9519 280.682 23.0719 280.682 26.9409V42.9999ZM309.068 20.2629C312.089 20.2629 314.633 22.1179 314.633 25.3509H303.291C303.821 22.0649 306.1 20.2629 309.068 20.2629ZM323.219 33.1949H313.573C312.831 34.7849 311.4 36.0569 308.856 36.0569C305.941 36.0569 303.556 34.2549 303.238 30.3859H323.749C323.855 29.4849 323.908 28.5839 323.908 27.7359C323.908 18.7259 317.813 13.0019 309.174 13.0019C300.376 13.0019 294.228 18.8319 294.228 28.2129C294.228 37.5939 300.482 43.4239 309.174 43.4239C316.541 43.4239 321.788 38.9719 323.219 33.1949ZM366.737 29.2729C366.737 24.1849 369.228 22.7009 373.521 22.7009H376.012V13.1079C372.037 13.1079 368.804 15.2279 366.737 18.3549V13.4259H357.674V42.9999H366.737V29.2729ZM380.344 42.9999H389.407V13.4259H380.344V42.9999ZM384.902 10.3519C388.082 10.3519 390.255 8.17888 390.255 5.47588C390.255 2.71988 388.082 0.546875 384.902 0.546875C381.669 0.546875 379.496 2.71988 379.496 5.47588C379.496 8.17888 381.669 10.3519 384.902 10.3519ZM409.012 20.2629C412.033 20.2629 414.577 22.1179 414.577 25.3509H403.235C403.765 22.0649 406.044 20.2629 409.012 20.2629ZM423.163 33.1949H413.517C412.775 34.7849 411.344 36.0569 408.8 36.0569C405.885 36.0569 403.5 34.2549 403.182 30.3859H423.693C423.799 29.4849 423.852 28.5839 423.852 27.7359C423.852 18.7259 417.757 13.0019 409.118 13.0019C400.32 13.0019 394.172 18.8319 394.172 28.2129C394.172 37.5939 400.426 43.4239 409.118 43.4239C416.485 43.4239 421.732 38.9719 423.163 33.1949ZM449.039 42.9999H458.049V25.7219C458.049 17.7719 453.491 13.1079 446.654 13.1079C442.679 13.1079 439.499 14.8569 437.697 17.3479V13.4259H428.634V42.9999H437.697V26.9409C437.697 22.9129 439.923 20.6869 443.368 20.6869C446.813 20.6869 449.039 22.9129 449.039 26.9409V42.9999ZM462.545 28.1599C462.545 37.4879 468.322 43.4239 475.583 43.4239C479.929 43.4239 483.056 41.4629 484.699 38.7599V42.9999H493.762V3.77988H484.699V17.5069C482.897 14.8039 479.505 13.0019 475.583 13.0019C468.322 13.0019 462.545 18.8319 462.545 28.1599ZM484.699 28.2129C484.699 32.9299 481.678 35.5269 478.233 35.5269C474.841 35.5269 471.767 32.8769 471.767 28.1599C471.767 23.4429 474.841 20.8989 478.233 20.8989C481.678 20.8989 484.699 23.4959 484.699 28.2129Z" fill="white"/>
<path d="M180.966 5.37012C169.836 5.37012 162.045 13.2141 162.045 24.3441C162.045 35.4741 169.889 43.2651 181.019 43.2651C190.824 43.2651 197.025 36.8521 198.933 30.4391V22.0121H179.217V28.6901H190.718C189.34 32.8771 186.213 35.2621 181.708 35.2621C175.189 35.2621 171.267 31.2341 171.267 24.3441C171.267 17.8781 175.136 13.7441 180.966 13.7441C184.358 13.7441 186.902 15.0691 188.28 17.5601H198.297C196.336 9.92812 189.87 5.37012 180.966 5.37012Z" fill="#77C6FF"/>
<path d="M328.689 42.9999H337.752V27.9479H349.094V20.8989H337.752V13.0549H352.91V5.79395H328.689V42.9999Z" fill="#FFC52C"/>
</svg>
