<svg width="118" height="135" viewBox="0 0 118 135" fill="none" xmlns="http://www.w3.org/2000/svg">
<g filter="url(#filter0_d)">
<path d="M4 29.0286C4 22.7303 9.10578 17.6245 15.4041 17.6245H101.971C108.27 17.6245 113.376 22.7303 113.376 29.0286V115.596C113.376 121.894 108.27 127 101.971 127H15.4041C9.10578 127 4 121.894 4 115.596V29.0286Z" fill="#393E4D"/>
<path d="M4 29.0286C4 22.7303 9.10578 17.6245 15.4041 17.6245H101.971C108.27 17.6245 113.376 22.7303 113.376 29.0286V45.098H4V29.0286Z" fill="#FE721C"/>
<path d="M38.4663 85.1169H47.3563V103.659H40.3967V101.474C37.9921 103.405 34.8087 104.37 30.8463 104.37C27.5273 104.37 24.4963 103.659 21.7531 102.236C19.0099 100.814 16.8255 98.7482 15.1999 96.0389C13.6081 93.2957 12.8123 90.0276 12.8123 86.2345C12.8123 82.5769 13.6589 79.3257 15.3523 76.4809C17.0456 73.6022 19.3993 71.367 22.4135 69.7753C25.4276 68.1836 28.8312 67.3877 32.6243 67.3877C35.9432 67.3877 38.9235 67.9465 41.5651 69.0641C44.2067 70.1817 46.408 71.7904 48.1691 73.8901L41.7683 79.6813C39.3637 77.0397 36.4851 75.7189 33.1323 75.7189C30.0504 75.7189 27.5781 76.6672 25.7155 78.5637C23.8867 80.4264 22.9723 82.9664 22.9723 86.1837C22.9723 89.4349 23.8359 91.9241 25.5631 93.6513C27.2903 95.3785 29.4747 96.2421 32.1163 96.2421C34.6563 96.2421 36.7729 95.5648 38.4663 94.2101V85.1169Z" fill="#FE721C"/>
<path d="M68.008 96.7501C69.3288 96.7501 70.4634 96.5638 71.4116 96.1913C72.3938 95.8188 73.3759 95.2092 74.358 94.3625L79.3872 99.6457C76.7795 102.626 72.8848 104.116 67.7032 104.116C64.4859 104.116 61.658 103.506 59.2196 102.287C56.7812 101.068 54.8847 99.3748 53.53 97.2073C52.2092 95.0398 51.5488 92.5845 51.5488 89.8413C51.5488 87.132 52.2092 84.7105 53.53 82.5769C54.8508 80.4094 56.6627 78.7161 58.9656 77.4969C61.3024 76.2777 63.9102 75.6681 66.7888 75.6681C69.4643 75.6681 71.9027 76.2269 74.104 77.3445C76.3392 78.4282 78.1172 80.0369 79.438 82.1705C80.7588 84.2702 81.4192 86.7764 81.4192 89.6889L61.7596 93.4481C62.8095 95.6494 64.8923 96.7501 68.008 96.7501ZM66.8396 82.5261C65.1802 82.5261 63.8255 83.051 62.7756 84.1009C61.7258 85.1169 61.1331 86.5901 60.9976 88.5205L72.1736 86.3361C71.835 85.1846 71.1915 84.2702 70.2432 83.5929C69.295 82.8817 68.1604 82.5261 66.8396 82.5261Z" fill="#FE721C"/>
<path d="M103.599 102.541C102.786 103.049 101.787 103.439 100.601 103.71C99.4499 103.981 98.2138 104.116 96.893 104.116C93.3031 104.116 90.543 103.236 88.6126 101.474C86.7161 99.7134 85.7678 97.0888 85.7678 93.6005V69.9785H95.4198V77.1413H101.668V84.3549H95.4198V93.4989C95.4198 94.5149 95.6738 95.2938 96.1818 95.8357C96.6898 96.3776 97.3841 96.6485 98.2646 96.6485C99.3822 96.6485 100.364 96.3606 101.211 95.7849L103.599 102.541Z" fill="#FE721C"/>
<path fill-rule="evenodd" clip-rule="evenodd" d="M28.8817 0C33.176 0 36.6572 3.48121 36.6572 7.77551V27.4735C36.6572 31.7678 33.176 35.249 28.8817 35.249C24.5874 35.249 21.1062 31.7678 21.1062 27.4735V7.77551C21.1062 3.48121 24.5874 0 28.8817 0Z" fill="#393E4D"/>
<path fill-rule="evenodd" clip-rule="evenodd" d="M88.4938 0C92.7881 0 96.2693 3.48121 96.2693 7.77551V27.4735C96.2693 31.7678 92.7881 35.249 88.4938 35.249C84.1995 35.249 80.7183 31.7678 80.7183 27.4735V7.77551C80.7183 3.48121 84.1995 0 88.4938 0Z" fill="#393E4D"/>
</g>
<defs>
<filter id="filter0_d" x="0" y="0" width="117.376" height="135" filterUnits="userSpaceOnUse" color-interpolation-filters="sRGB">
<feFlood flood-opacity="0" result="BackgroundImageFix"/>
<feColorMatrix in="SourceAlpha" type="matrix" values="0 0 0 0 0 0 0 0 0 0 0 0 0 0 0 0 0 0 127 0" result="hardAlpha"/>
<feOffset dy="4"/>
<feGaussianBlur stdDeviation="2"/>
<feComposite in2="hardAlpha" operator="out"/>
<feColorMatrix type="matrix" values="0 0 0 0 0 0 0 0 0 0 0 0 0 0 0 0 0 0 0.25 0"/>
<feBlend mode="normal" in2="BackgroundImageFix" result="effect1_dropShadow"/>
<feBlend mode="normal" in="SourceGraphic" in2="effect1_dropShadow" result="shape"/>
</filter>
</defs>
</svg>
